<svg width="34" height="34" viewBox="0 0 34 34" fill="none" xmlns="http://www.w3.org/2000/svg">
<g clip-path="url(#clip0_170_356)">
<path d="M7.89293 14.572C11.5814 14.572 14.5715 11.5819 14.5715 7.89342C14.5715 4.20494 11.5814 1.21484 7.89293 1.21484C4.20445 1.21484 1.21436 4.20494 1.21436 7.89342C1.21436 11.5819 4.20445 14.572 7.89293 14.572Z" stroke="white" stroke-width="1.5" stroke-linecap="round" stroke-linejoin="round"/>
<path d="M26.1073 14.572C29.7958 14.572 32.7859 11.5819 32.7859 7.89342C32.7859 4.20494 29.7958 1.21484 26.1073 1.21484C22.4188 1.21484 19.4287 4.20494 19.4287 7.89342C19.4287 11.5819 22.4188 14.572 26.1073 14.572Z" stroke="white" stroke-width="1.5" stroke-linecap="round" stroke-linejoin="round"/>
<path d="M7.89293 32.7868C11.5814 32.7868 14.5715 29.7967 14.5715 26.1083C14.5715 22.4198 11.5814 19.4297 7.89293 19.4297C4.20445 19.4297 1.21436 22.4198 1.21436 26.1083C1.21436 29.7967 4.20445 32.7868 7.89293 32.7868Z" stroke="white" stroke-width="1.5" stroke-linecap="round" stroke-linejoin="round"/>
<path d="M26.1073 32.7868C29.7958 32.7868 32.7859 29.7967 32.7859 26.1083C32.7859 22.4198 29.7958 19.4297 26.1073 19.4297C22.4188 19.4297 19.4287 22.4198 19.4287 26.1083C19.4287 29.7967 22.4188 32.7868 26.1073 32.7868Z" stroke="white" stroke-width="1.5" stroke-linecap="round" stroke-linejoin="round"/>
</g>
<defs>
<clipPath id="clip0_170_356">
<rect width="34" height="34" fill="white"/>
</clipPath>
</defs>
</svg>
