<svg width="34" height="34" viewBox="0 0 34 34" fill="none" xmlns="http://www.w3.org/2000/svg">
<path d="M12.7013 5.46484L13.7456 2.76913C13.9217 2.31271 14.2316 1.92013 14.6346 1.64279C15.0376 1.36545 15.515 1.21629 16.0042 1.21484H17.9956C18.4848 1.21629 18.9622 1.36545 19.3652 1.64279C19.7682 1.92013 20.0781 2.31271 20.2542 2.76913L21.2985 5.46484L24.8442 7.50484L27.7099 7.0677C28.1871 7.00293 28.6727 7.08148 29.1052 7.29337C29.5376 7.50526 29.8973 7.84092 30.1385 8.2577L31.1099 9.9577C31.3588 10.3811 31.4735 10.8701 31.4388 11.36C31.4041 11.85 31.2217 12.3179 30.9156 12.702L29.1428 14.9606V19.0406L30.9642 21.2991C31.2703 21.6833 31.4527 22.1512 31.4874 22.6411C31.5221 23.1311 31.4074 23.62 31.1585 24.0434L30.1871 25.7434C29.9458 26.1602 29.5862 26.4959 29.1537 26.7077C28.7213 26.9196 28.2357 26.9982 27.7585 26.9334L24.8928 26.4963L21.3471 28.5363L20.3028 31.232C20.1266 31.6884 19.8168 32.081 19.4138 32.3583C19.0108 32.6357 18.5334 32.7848 18.0442 32.7863H16.0042C15.515 32.7848 15.0376 32.6357 14.6346 32.3583C14.2316 32.081 13.9217 31.6884 13.7456 31.232L12.7013 28.5363L9.15562 26.4963L6.28991 26.9334C5.81274 26.9982 5.32708 26.9196 4.89465 26.7077C4.46223 26.4959 4.10255 26.1602 3.86134 25.7434L2.88991 24.0434C2.64099 23.62 2.5263 23.1311 2.56098 22.6411C2.59567 22.1512 2.7781 21.6833 3.0842 21.2991L4.85705 19.0406V14.9606L3.03562 12.702C2.72953 12.3179 2.5471 11.85 2.51241 11.36C2.47773 10.8701 2.59241 10.3811 2.84134 9.9577L3.81277 8.2577C4.05398 7.84092 4.41365 7.50526 4.84608 7.29337C5.27851 7.08148 5.76416 7.00293 6.24134 7.0677L9.10705 7.50484L12.7013 5.46484ZM12.1428 17.0006C12.1428 17.9612 12.4276 18.9003 12.9613 19.699C13.4951 20.4978 14.2536 21.1203 15.1412 21.488C16.0287 21.8556 17.0053 21.9518 17.9475 21.7644C18.8897 21.577 19.7551 21.1144 20.4344 20.4351C21.1137 19.7558 21.5763 18.8903 21.7637 17.9481C21.9511 17.0059 21.8549 16.0293 21.4873 15.1418C21.1197 14.2543 20.4971 13.4957 19.6984 12.962C18.8996 12.4283 17.9606 12.1434 16.9999 12.1434C15.7117 12.1434 14.4763 12.6551 13.5654 13.566C12.6545 14.4769 12.1428 15.7124 12.1428 17.0006V17.0006Z" stroke="white" stroke-width="1.5" stroke-linecap="round" stroke-linejoin="round"/>
</svg>
